<?xml version="1.0" encoding="UTF-8"?>
<svg id="svg" version="1.1" xmlns="http://www.w3.org/2000/svg"
     style="display: block;" viewBox="0 0 1116 1096">
    <path
        d="M0 0 C6.6 0 13.2 0 20 0 C27.425 0.99 27.425 0.99 35 2 C40.28 3.32 45.56 4.64 51 6 C55.29 7.65 59.58 9.3 64 11 C67.96 13.31 71.92 15.62 76 18 C79.63 20.97 83.26 23.94 87 27 C89.64 29.97 92.28 32.94 95 36 C98.465 41.445 98.465 41.445 102 47 C104.31 51.95 106.62 56.9 109 62 C110.65 68.27 112.3 74.54 114 81 C114.99 88.92 114.99 88.92 116 97 C116 107.23 116 117.46 116 128 C114.68 135.59 113.36 143.18 112 151 C110.02 156.61 108.04 162.22 106 168 C103.36 172.95 100.72 177.9 98 183 C93.545 188.445 93.545 188.445 89 194 C85.37 197.3 81.74 200.6 78 204 C70.575 208.455 70.575 208.455 63 213 C59.04 214.65 55.08 216.3 51 218 C40.605 220.475 40.605 220.475 30 223 C27.36 223.33 24.72 223.66 22 224 C11.44 224 0.88 224 -10 224 C-14.95 223.34 -19.9 222.68 -25 222 C-25.33 221.67 -25.66 221.34 -26 221 C-26.495 215.06 -26.495 215.06 -27 209 C-27 173.03 -27 137.06 -27 100 C-26.67 68.32 -26.34 36.64 -26 4 C-25.34 3.34 -24.68 2.68 -24 2 C-12.12 1.01 -12.12 1.01 0 0 Z "
        transform="translate(647,432)" style="fill: #0C4B33;"/>
    <path
        d="M0 0 C77.55 0 155.1 0 235 0 C287.47 0.495 287.47 0.495 341 1 C345.29 2.32 349.58 3.64 354 5 C357.96 6.98 361.92 8.96 366 11 C369.3 13.97 372.6 16.94 376 20 C378.31 22.64 380.62 25.28 383 28 C384.98 31.63 386.96 35.26 389 39 C390.32 44.28 391.64 49.56 393 55 C393 278.74 393 502.48 393 733 C391.68 737.29 390.36 741.58 389 746 C386.525 750.95 386.525 750.95 384 756 C381.36 759.3 378.72 762.6 376 766 C372.7 768.97 369.4 771.94 366 775 C358.08 778.96 358.08 778.96 350 783 C347.69 783.66 345.38 784.32 343 785 C339.04 785.33 335.08 785.66 331 786 C112.21 786 -106.58 786 -332 786 C-335.96 785.34 -339.92 784.68 -344 784 C-348.29 782.35 -352.58 780.7 -357 779 C-363.435 774.545 -363.435 774.545 -370 770 C-372.97 766.7 -375.94 763.4 -379 760 C-382.96 753.07 -382.96 753.07 -387 746 C-388.32 741.71 -389.64 737.42 -391 733 C-391.33 677.23 -391.66 621.46 -392 564 C-392 511.2 -392 458.4 -392 404 C-391.67 394.43 -391.34 384.86 -391 375 C-390.01 365.43 -389.02 355.86 -388 346 C-386.68 338.08 -385.36 330.16 -384 322 C-381.69 312.43 -379.38 302.86 -377 293 C-375.02 286.73 -373.04 280.46 -371 274 C-368.03 265.75 -365.06 257.5 -362 249 C-358.7 241.41 -355.4 233.82 -352 226 C-349.36 220.72 -346.72 215.44 -344 210 C-341.36 205.05 -338.72 200.1 -336 195 C-332.04 188.73 -328.08 182.46 -324 176 C-319.71 170.06 -315.42 164.12 -311 158 C-308.03 154.37 -305.06 150.74 -302 147 C-299.03 143.37 -296.06 139.74 -293 136 C-289.04 131.71 -285.08 127.42 -281 123 C-276.38 118.38 -271.76 113.76 -267 109 C-266.34 109 -265.68 109 -265 109 C-264.01 107.02 -264.01 107.02 -263 105 C-260.03 102.36 -257.06 99.72 -254 97 C-250.37 94.03 -246.74 91.06 -243 88 C-237.06 83.38 -231.12 78.76 -225 74 C-220.05 70.7 -215.1 67.4 -210 64 C-202.74 59.71 -195.48 55.42 -188 51 C-174.635 44.07 -174.635 44.07 -161 37 C-154.73 34.36 -148.46 31.72 -142 29 C-126.655 23.555 -126.655 23.555 -111 18 C-97.8 14.7 -84.6 11.4 -71 8 C-63.74 6.68 -56.48 5.36 -49 4 C-34.645 2.515 -34.645 2.515 -20 1 C-10.1 0.505 -10.1 0.505 0 0 Z M-9 79 C-16.92 79.33 -24.84 79.66 -33 80 C-37.62 80.66 -42.24 81.32 -47 82 C-48.98 82.99 -50.96 83.98 -53 85 C-53.99 87.97 -54.98 90.94 -56 94 C-57.32 100.6 -58.64 107.2 -60 114 C-61.98 122.58 -63.96 131.16 -66 140 C-67.32 141.32 -68.64 142.64 -70 144 C-83.365 149.445 -83.365 149.445 -97 155 C-102.94 157.64 -108.88 160.28 -115 163 C-116.65 163.99 -118.3 164.98 -120 166 C-122.97 165.505 -122.97 165.505 -126 165 C-131.94 161.37 -137.88 157.74 -144 154 C-149.94 150.37 -155.88 146.74 -162 143 C-163.98 142.01 -165.96 141.02 -168 140 C-171.63 140 -175.26 140 -179 140 C-182.96 142.97 -182.96 142.97 -187 146 C-191.95 150.62 -196.9 155.24 -202 160 C-204.64 162.31 -207.28 164.62 -210 167 C-215.28 172.28 -220.56 177.56 -226 183 C-229.465 186.96 -229.465 186.96 -233 191 C-236.63 195.29 -240.26 199.58 -244 204 C-245.32 206.31 -246.64 208.62 -248 211 C-248 213.97 -248 216.94 -248 220 C-245.03 225.445 -245.03 225.445 -242 231 C-235.07 241.395 -235.07 241.395 -228 252 C-223.545 258.93 -223.545 258.93 -219 266 C-219.33 267.65 -219.66 269.3 -220 271 C-223.63 278.92 -227.26 286.84 -231 295 C-233.97 303.25 -236.94 311.5 -240 320 C-240.99 320.99 -241.98 321.98 -243 323 C-268.74 329.435 -268.74 329.435 -295 336 C-296.65 337.65 -298.3 339.3 -300 341 C-300.99 349.25 -301.98 357.5 -303 366 C-303.33 371.94 -303.66 377.88 -304 384 C-304 391.92 -304 399.84 -304 408 C-303.01 419.55 -302.02 431.1 -301 443 C-299.35 444.32 -297.7 445.64 -296 447 C-291.05 448.485 -291.05 448.485 -286 450 C-265.21 454.95 -265.21 454.95 -244 460 C-242.68 461.32 -241.36 462.64 -240 464 C-237.36 471.59 -234.72 479.18 -232 487 C-229.36 492.94 -226.72 498.88 -224 505 C-222.35 508.3 -220.7 511.6 -219 515 C-219.33 516.65 -219.66 518.3 -220 520 C-223.63 525.61 -227.26 531.22 -231 537 C-234.96 543.27 -238.92 549.54 -243 556 C-244.65 558.97 -246.3 561.94 -248 565 C-248 567.97 -248 570.94 -248 574 C-244.37 578.62 -240.74 583.24 -237 588 C-232.38 592.95 -227.76 597.9 -223 603 C-220.69 605.64 -218.38 608.28 -216 611 C-210.72 616.28 -205.44 621.56 -200 627 C-196.37 629.97 -192.74 632.94 -189 636 C-186.03 638.31 -183.06 640.62 -180 643 C-175.71 643 -171.42 643 -167 643 C-160.07 639.04 -160.07 639.04 -153 635 C-145.74 630.38 -138.48 625.76 -131 621 C-129.02 619.68 -127.04 618.36 -125 617 C-123.35 617.33 -121.7 617.66 -120 618 C-112.575 621.96 -112.575 621.96 -105 626 C-97.41 629.3 -89.82 632.6 -82 636 C-75.07 638.97 -75.07 638.97 -68 642 C-67.34 642.66 -66.68 643.32 -66 644 C-62.04 661.49 -58.08 678.98 -54 697 C-53.34 698.32 -52.68 699.64 -52 701 C-46.06 702.485 -46.06 702.485 -40 704 C-32.41 704.66 -24.82 705.32 -17 706 C-5.12 706 6.76 706 19 706 C34.345 704.515 34.345 704.515 50 703 C52.97 701.515 52.97 701.515 56 700 C57.32 695.05 58.64 690.1 60 685 C64.95 663.55 69.9 642.1 75 620 C74.67 618.35 74.34 616.7 74 615 C67.73 614.34 61.46 613.68 55 613 C49.39 613 43.78 613 38 613 C36.68 617.95 35.36 622.9 34 628 C31.03 640.54 28.06 653.08 25 666 C24.67 666.33 24.34 666.66 24 667 C21.03 667.33 18.06 667.66 15 668 C5.1 668 -4.8 668 -15 668 C-17.31 667.34 -19.62 666.68 -22 666 C-24.97 652.8 -27.94 639.6 -31 626 C-31.99 621.38 -32.98 616.76 -34 612 C-35.98 611.01 -37.96 610.02 -40 609 C-44.95 607.68 -49.9 606.36 -55 605 C-63.25 601.7 -71.5 598.4 -80 595 C-87.59 591.04 -95.18 587.08 -103 583 C-111.415 578.05 -111.415 578.05 -120 573 C-122.97 573.33 -125.94 573.66 -129 574 C-135.27 577.96 -141.54 581.92 -148 586 C-151.3 588.31 -154.6 590.62 -158 593 C-161.63 594.98 -165.26 596.96 -169 599 C-170.32 598.67 -171.64 598.34 -173 598 C-178.94 592.555 -178.94 592.555 -185 587 C-189.62 582.05 -194.24 577.1 -199 572 C-200.98 570.02 -200.98 570.02 -203 568 C-202.67 566.35 -202.34 564.7 -202 563 C-199.36 558.38 -196.72 553.76 -194 549 C-190.7 544.05 -187.4 539.1 -184 534 C-181.36 529.38 -178.72 524.76 -176 520 C-176.33 517.03 -176.66 514.06 -177 511 C-181.29 503.41 -185.58 495.82 -190 488 C-192.64 482.06 -195.28 476.12 -198 470 C-199.98 463.4 -201.96 456.8 -204 450 C-205.65 443.73 -207.3 437.46 -209 431 C-211.97 429.68 -214.94 428.36 -218 427 C-232.52 423.37 -247.04 419.74 -262 416 C-263.485 414.515 -263.485 414.515 -265 413 C-265 400.13 -265 387.26 -265 374 C-264.67 372.02 -264.34 370.04 -264 368 C-262.35 367.34 -260.7 366.68 -259 366 C-248.77 364.02 -238.54 362.04 -228 360 C-221.07 358.02 -221.07 358.02 -214 356 C-212.35 354.68 -210.7 353.36 -209 352 C-206.69 344.08 -204.38 336.16 -202 328 C-200.02 322.06 -198.04 316.12 -196 310 C-192.37 302.41 -188.74 294.82 -185 287 C-182.03 281.39 -179.06 275.78 -176 270 C-176 268.02 -176 266.04 -176 264 C-179.96 257.07 -179.96 257.07 -184 250 C-188.455 243.07 -188.455 243.07 -193 236 C-197.95 228.08 -197.95 228.08 -203 220 C-202.505 217.03 -202.505 217.03 -202 214 C-199.69 211.69 -197.38 209.38 -195 207 C-191.535 203.04 -191.535 203.04 -188 199 C-185.03 196.03 -182.06 193.06 -179 190 C-176.69 188.02 -174.38 186.04 -172 184 C-170.35 184.33 -168.7 184.66 -167 185 C-157.1 191.6 -147.2 198.2 -137 205 C-134.36 206.65 -131.72 208.3 -129 210 C-126.03 210.33 -123.06 210.66 -120 211 C-117.03 209.35 -114.06 207.7 -111 206 C-106.38 203.03 -101.76 200.06 -97 197 C-89.41 193.37 -81.82 189.74 -74 186 C-66.08 183.36 -58.16 180.72 -50 178 C-45.05 176.35 -40.1 174.7 -35 173 C-33.515 169.04 -33.515 169.04 -32 165 C-29.36 152.46 -26.72 139.92 -24 127 C-23.34 124.03 -22.68 121.06 -22 118 C-19.03 117.67 -16.06 117.34 -13 117 C-1.78 117 9.44 117 21 117 C21.99 117.33 22.98 117.66 24 118 C25.98 124.435 25.98 124.435 28 131 C30.97 144.2 33.94 157.4 37 171 C44.59 171 52.18 171 60 171 C64.62 170.67 69.24 170.34 74 170 C74.33 169.01 74.66 168.02 75 167 C72.03 153.8 69.06 140.6 66 127 C62.04 108.685 62.04 108.685 58 90 C56.515 87.03 56.515 87.03 55 84 C52.03 83.01 49.06 82.02 46 81 C43.69 80.67 41.38 80.34 39 80 C33.06 79.67 27.12 79.34 21 79 C11.1 79 1.2 79 -9 79 Z M68 210 C58.1 210.66 48.2 211.32 38 212 C28.1 213.32 18.2 214.64 8 216 C-4.87 218.475 -4.87 218.475 -18 221 C-18.33 221.33 -18.66 221.66 -19 222 C-19 323.97 -19 425.94 -19 531 C-18.67 541.56 -18.34 552.12 -18 563 C-9.09 564.65 -0.18 566.3 9 568 C19.89 569.32 30.78 570.64 42 572 C46.95 572.33 51.9 572.66 57 573 C76.47 573 95.94 573 116 573 C124.58 572.01 133.16 571.02 142 570 C149.26 568.35 156.52 566.7 164 565 C170.6 563.02 177.2 561.04 184 559 C190.27 556.03 196.54 553.06 203 550 C211.91 544.555 211.91 544.555 221 539 C225.62 535.04 230.24 531.08 235 527 C238.3 523.7 241.6 520.4 245 517 C249.29 511.39 253.58 505.78 258 500 C260.64 495.38 263.28 490.76 266 486 C268.64 480.39 271.28 474.78 274 469 C275.98 463.06 277.96 457.12 280 451 C281.32 444.4 282.64 437.8 284 431 C284.66 426.71 285.32 422.42 286 418 C286.33 414.04 286.66 410.08 287 406 C287 395.44 287 384.88 287 374 C286.01 365.75 285.02 357.5 284 349 C282.02 341.08 280.04 333.16 278 325 C274.04 314.605 274.04 314.605 270 304 C266.7 297.73 263.4 291.46 260 285 C255.38 279.06 250.76 273.12 246 267 C241.05 262.05 236.1 257.1 231 252 C226.38 248.7 221.76 245.4 217 242 C212.05 239.03 207.1 236.06 202 233 C195.4 230.03 188.8 227.06 182 224 C174.08 221.69 166.16 219.38 158 217 C149.09 215.02 149.09 215.02 140 213 C131.42 212.01 122.84 211.02 114 210 C98.82 210 83.64 210 68 210 Z M-62 232 C-69.92 235.96 -69.92 235.96 -78 240 C-85.92 244.95 -85.92 244.95 -94 250 C-97.63 252.97 -101.26 255.94 -105 259 C-108.3 261.97 -111.6 264.94 -115 268 C-117.31 270.64 -119.62 273.28 -122 276 C-125.3 279.96 -128.6 283.92 -132 288 C-138.435 298.395 -138.435 298.395 -145 309 C-147.64 314.94 -150.28 320.88 -153 327 C-155.31 333.93 -157.62 340.86 -160 348 C-161.32 354.6 -162.64 361.2 -164 368 C-164.33 370.31 -164.66 372.62 -165 375 C-165 386.88 -165 398.76 -165 411 C-163.68 418.26 -162.36 425.52 -161 433 C-159.02 439.6 -157.04 446.2 -155 453 C-153.35 457.29 -151.7 461.58 -150 466 C-146.7 472.27 -143.4 478.54 -140 485 C-137.36 488.96 -134.72 492.92 -132 497 C-129.03 500.63 -126.06 504.26 -123 508 C-119.37 511.96 -115.74 515.92 -112 520 C-108.04 523.465 -108.04 523.465 -104 527 C-98.72 530.96 -93.44 534.92 -88 539 C-82.72 541.97 -77.44 544.94 -72 548 C-68.37 549.65 -64.74 551.3 -61 553 C-60.01 553 -59.02 553 -58 553 C-58 539.8 -58 526.6 -58 513 C-59.65 511.35 -61.3 509.7 -63 508 C-67.29 505.03 -71.58 502.06 -76 499 C-79.3 496.03 -82.6 493.06 -86 490 C-88.97 487.03 -91.94 484.06 -95 481 C-98.96 475.72 -102.92 470.44 -107 465 C-109.64 459.72 -112.28 454.44 -115 449 C-116.98 444.05 -118.96 439.1 -121 434 C-122.65 427.4 -124.3 420.8 -126 414 C-126.33 411.36 -126.66 408.72 -127 406 C-127 397.42 -127 388.84 -127 380 C-125.35 371.42 -123.7 362.84 -122 354 C-120.02 348.72 -118.04 343.44 -116 338 C-112.7 331.73 -109.4 325.46 -106 319 C-103.03 315.04 -100.06 311.08 -97 307 C-90.07 299.575 -90.07 299.575 -83 292 C-78.71 288.37 -74.42 284.74 -70 281 C-66.04 278.36 -62.08 275.72 -58 273 C-58 259.47 -58 245.94 -58 232 C-59.32 232 -60.64 232 -62 232 Z "
        transform="translate(559,153)" style="fill: #0C4B33;"/>
    <path
        d="M0 0 C225.72 0 451.44 0 684 0 C692.25 0.99 700.5 1.98 709 3 C715.6 4.65 722.2 6.3 729 8 C735.93 10.97 742.86 13.94 750 17 C757.92 21.455 757.92 21.455 766 26 C770.95 29.63 775.9 33.26 781 37 C784.96 40.63 788.92 44.26 793 48 C795.31 50.64 797.62 53.28 800 56 C803.3 60.29 806.6 64.58 810 69 C812.97 74.28 815.94 79.56 819 85 C821.31 89.62 823.62 94.24 826 99 C829.96 111.87 829.96 111.87 834 125 C834.99 131.27 835.98 137.54 837 144 C837.33 146.97 837.66 149.94 838 153 C838 378.72 838 604.44 838 837 C837.34 842.61 836.68 848.22 836 854 C833.03 866.375 833.03 866.375 830 879 C827.03 885.93 824.06 892.86 821 900 C817.7 905.61 814.4 911.22 811 917 C807.7 921.29 804.4 925.58 801 930 C798.69 932.64 796.38 935.28 794 938 C790.37 941.63 786.74 945.26 783 949 C778.71 952.3 774.42 955.6 770 959 C765.38 961.97 760.76 964.94 756 968 C750.39 970.97 744.78 973.94 739 977 C733.72 978.98 728.44 980.96 723 983 C712.11 985.475 712.11 985.475 701 988 C698.69 988.33 696.38 988.66 694 989 C683.77 989.33 673.54 989.66 663 990 C446.52 990 230.04 990 7 990 C-0.59 989.34 -8.18 988.68 -16 988 C-23.26 986.35 -30.52 984.7 -38 983 C-45.92 980.03 -45.92 980.03 -54 977 C-61.59 972.71 -69.18 968.42 -77 964 C-82.28 960.04 -87.56 956.08 -93 952 C-96.63 948.7 -100.26 945.4 -104 942 C-106.31 939.36 -108.62 936.72 -111 934 C-113.31 931.36 -115.62 928.72 -118 926 C-120.97 921.71 -123.94 917.42 -127 913 C-131.29 904.75 -135.58 896.5 -140 888 C-141.65 883.05 -143.3 878.1 -145 873 C-146.65 865.74 -148.3 858.48 -150 851 C-150.66 845.72 -151.32 840.44 -152 835 C-152 609.28 -152 383.56 -152 151 C-150.68 142.42 -149.36 133.84 -148 125 C-146.02 118.07 -144.04 111.14 -142 104 C-138.04 95.42 -134.08 86.84 -130 78 C-126.37 72.72 -122.74 67.44 -119 62 C-114.545 57.05 -114.545 57.05 -110 52 C-105.545 47.05 -105.545 47.05 -101 42 C-97.37 39.03 -93.74 36.06 -90 33 C-85.05 29.535 -85.05 29.535 -80 26 C-73.07 22.04 -73.07 22.04 -66 18 C-58.41 14.7 -50.82 11.4 -43 8 C-30.625 5.03 -30.625 5.03 -18 2 C-9.09 1.01 -9.09 1.01 0 0 Z M-1 57 C-8.92 58.485 -8.92 58.485 -17 60 C-22.28 61.98 -27.56 63.96 -33 66 C-38.94 69.3 -44.88 72.6 -51 76 C-55.29 79.96 -59.58 83.92 -64 88 C-67.3 91.63 -70.6 95.26 -74 99 C-76.31 102.63 -78.62 106.26 -81 110 C-83.64 115.61 -86.28 121.22 -89 127 C-90.32 131.95 -91.64 136.9 -93 142 C-93.66 146.95 -94.32 151.9 -95 157 C-95 379.75 -95 602.5 -95 832 C-94.01 837.94 -93.02 843.88 -92 850 C-90.02 855.94 -88.04 861.88 -86 868 C-81.545 876.415 -81.545 876.415 -77 885 C-74.36 888.3 -71.72 891.6 -69 895 C-65.535 898.96 -65.535 898.96 -62 903 C-56.555 907.455 -56.555 907.455 -51 912 C-47.37 914.31 -43.74 916.62 -40 919 C-33.565 921.97 -33.565 921.97 -27 925 C-21.72 926.65 -16.44 928.3 -11 930 C-2.585 931.485 -2.585 931.485 6 933 C228.42 933 450.84 933 680 933 C684.29 932.34 688.58 931.68 693 931 C698.94 929.35 704.88 927.7 711 926 C718.59 922.37 726.18 918.74 734 915 C737.3 912.03 740.6 909.06 744 906 C746.64 903.69 749.28 901.38 752 899 C754.31 896.03 756.62 893.06 759 890 C761.97 886.04 761.97 886.04 765 882 C769.455 872.595 769.455 872.595 774 863 C775.32 858.71 776.64 854.42 778 850 C779.485 840.595 779.485 840.595 781 831 C781 610.56 781 390.12 781 163 C780.34 156.73 779.68 150.46 779 144 C776.525 134.595 776.525 134.595 774 125 C769.545 115.595 769.545 115.595 765 106 C762.36 102.37 759.72 98.74 757 95 C754.03 91.535 754.03 91.535 751 88 C747.04 84.535 747.04 84.535 743 81 C737.555 77.04 737.555 77.04 732 73 C727.05 70.36 722.1 67.72 717 65 C711.06 63.02 705.12 61.04 699 59 C694.71 58.34 690.42 57.68 686 57 C459.29 57 232.58 57 -1 57 Z "
        transform="translate(217,51)" style="fill: #0C4B33;"/>
</svg>
